<?xml version="1.0" standalone="no"?>
<!DOCTYPE svg PUBLIC "-//W3C//DTD SVG 20010904//EN"
 "http://www.w3.org/TR/2001/REC-SVG-20010904/DTD/svg10.dtd">
<svg version="1.0" xmlns="http://www.w3.org/2000/svg"
 width="512.000000pt" height="512.000000pt" viewBox="0 0 512.000000 512.000000"
 preserveAspectRatio="xMidYMid meet">
<metadata>
Created by potrace 1.14, written by Peter Selinger 2001-2017
</metadata>
<g transform="translate(0.000000,512.000000) scale(0.100000,-0.100000)"
fill="#000000" stroke="none">
<path d="M310 4747 c-118 -17 -219 -93 -274 -207 l-31 -65 -2 -1890 c-3 -2017
-5 -1934 45 -2030 24 -49 83 -108 137 -139 94 -53 -32 -50 2360 -51 1221 0
2242 3 2268 8 118 20 223 100 273 210 l29 62 0 1915 0 1915 -28 60 c-46 99
-136 177 -237 206 -36 10 -505 12 -2266 13 -1221 1 -2245 -2 -2274 -7z m420
-292 c16 -8 42 -31 57 -52 24 -31 28 -45 28 -103 0 -54 -5 -73 -25 -103 -97
-141 -314 -84 -328 87 -5 57 17 114 56 149 51 46 146 56 212 22z m540 5 c94
-48 128 -178 69 -265 -74 -107 -239 -103 -304 8 -56 97 -23 208 80 260 35 18
118 17 155 -3z m3480 -637 c3 -7 5 -704 4 -1550 l0 -1538 -2194 0 -2194 0 -1
1545 c0 850 3 1547 7 1550 4 3 990 6 2190 6 1732 0 2184 -3 2188 -13z"/>
<path d="M879 3617 c-8 -13 -2 -250 6 -256 5 -4 82 -38 170 -75 88 -38 178
-76 200 -86 22 -9 149 -64 283 -121 133 -56 242 -105 242 -108 0 -4 -49 -26
-108 -50 -105 -43 -121 -50 -212 -89 -25 -11 -137 -59 -250 -107 -113 -48
-220 -93 -238 -101 -18 -9 -47 -21 -65 -29 l-32 -13 0 -126 c0 -69 3 -126 8
-126 6 0 241 106 662 300 39 18 138 63 220 100 83 37 180 82 218 99 l67 32 0
112 0 112 -383 174 c-210 96 -422 194 -472 217 -202 93 -315 144 -316 141z"/>
<path d="M2606 3090 c-2 -3 -3 -58 -4 -122 l0 -118 319 0 c297 0 319 1 320 18
4 66 0 214 -6 220 -8 8 -625 10 -629 2z"/>
</g>
</svg>
